<mxfile host="app.diagrams.net" modified="2024-04-23T17:56:24.870Z" agent="Mozilla/5.0 (Windows NT 10.0; Win64; x64) AppleWebKit/537.36 (KHTML, like Gecko) Chrome/121.0.0.0 Safari/537.36 OPR/107.0.0.0" etag="qq5XPwv_UAcLyGeHEhTi" version="24.2.5" type="github">
  <diagram name="Страница — 1" id="LRzv0FOLlUoFuLBNGjy3">
    <mxGraphModel dx="1361" dy="1776" grid="1" gridSize="10" guides="1" tooltips="1" connect="1" arrows="1" fold="1" page="1" pageScale="1" pageWidth="827" pageHeight="1169" math="0" shadow="0">
      <root>
        <mxCell id="0" />
        <mxCell id="1" parent="0" />
        <mxCell id="tNlqTVV6g3EdLNQKf1Rk-1" value="Персонаж" style="rounded=0;whiteSpace=wrap;html=1;" vertex="1" parent="1">
          <mxGeometry x="120" y="80" width="140" height="80" as="geometry" />
        </mxCell>
        <mxCell id="tNlqTVV6g3EdLNQKf1Rk-2" value="" style="endArrow=none;html=1;rounded=0;entryX=0;entryY=1;entryDx=0;entryDy=0;" edge="1" parent="1" target="tNlqTVV6g3EdLNQKf1Rk-1">
          <mxGeometry width="50" height="50" relative="1" as="geometry">
            <mxPoint x="120" y="400" as="sourcePoint" />
            <mxPoint x="440" y="370" as="targetPoint" />
          </mxGeometry>
        </mxCell>
        <mxCell id="tNlqTVV6g3EdLNQKf1Rk-3" value="" style="endArrow=none;html=1;rounded=0;" edge="1" parent="1">
          <mxGeometry width="50" height="50" relative="1" as="geometry">
            <mxPoint x="120" y="400" as="sourcePoint" />
            <mxPoint x="200" y="400" as="targetPoint" />
          </mxGeometry>
        </mxCell>
        <mxCell id="tNlqTVV6g3EdLNQKf1Rk-4" value="" style="endArrow=none;html=1;rounded=0;" edge="1" parent="1">
          <mxGeometry width="50" height="50" relative="1" as="geometry">
            <mxPoint x="120" y="360" as="sourcePoint" />
            <mxPoint x="200" y="360" as="targetPoint" />
          </mxGeometry>
        </mxCell>
        <mxCell id="tNlqTVV6g3EdLNQKf1Rk-5" value="" style="endArrow=none;html=1;rounded=0;" edge="1" parent="1">
          <mxGeometry width="50" height="50" relative="1" as="geometry">
            <mxPoint x="120" y="320" as="sourcePoint" />
            <mxPoint x="200" y="320" as="targetPoint" />
          </mxGeometry>
        </mxCell>
        <mxCell id="tNlqTVV6g3EdLNQKf1Rk-6" value="" style="endArrow=none;html=1;rounded=0;" edge="1" parent="1">
          <mxGeometry width="50" height="50" relative="1" as="geometry">
            <mxPoint x="120" y="280" as="sourcePoint" />
            <mxPoint x="200" y="280" as="targetPoint" />
          </mxGeometry>
        </mxCell>
        <mxCell id="tNlqTVV6g3EdLNQKf1Rk-7" value="" style="endArrow=none;html=1;rounded=0;" edge="1" parent="1">
          <mxGeometry width="50" height="50" relative="1" as="geometry">
            <mxPoint x="120" y="240" as="sourcePoint" />
            <mxPoint x="200" y="240" as="targetPoint" />
          </mxGeometry>
        </mxCell>
        <mxCell id="tNlqTVV6g3EdLNQKf1Rk-8" value="Имя" style="text;html=1;align=center;verticalAlign=middle;whiteSpace=wrap;rounded=0;" vertex="1" parent="1">
          <mxGeometry x="130" y="210" width="60" height="30" as="geometry" />
        </mxCell>
        <mxCell id="tNlqTVV6g3EdLNQKf1Rk-9" value="Уровень" style="text;html=1;align=center;verticalAlign=middle;whiteSpace=wrap;rounded=0;" vertex="1" parent="1">
          <mxGeometry x="130" y="250" width="60" height="30" as="geometry" />
        </mxCell>
        <mxCell id="tNlqTVV6g3EdLNQKf1Rk-10" value="Здоровье" style="text;html=1;align=center;verticalAlign=middle;whiteSpace=wrap;rounded=0;" vertex="1" parent="1">
          <mxGeometry x="130" y="290" width="60" height="30" as="geometry" />
        </mxCell>
        <mxCell id="tNlqTVV6g3EdLNQKf1Rk-11" value="Скорость" style="text;html=1;align=center;verticalAlign=middle;whiteSpace=wrap;rounded=0;" vertex="1" parent="1">
          <mxGeometry x="130" y="330" width="60" height="30" as="geometry" />
        </mxCell>
        <mxCell id="tNlqTVV6g3EdLNQKf1Rk-12" value="Ум" style="text;html=1;align=center;verticalAlign=middle;whiteSpace=wrap;rounded=0;" vertex="1" parent="1">
          <mxGeometry x="130" y="370" width="60" height="30" as="geometry" />
        </mxCell>
        <mxCell id="tNlqTVV6g3EdLNQKf1Rk-13" value="" style="endArrow=none;html=1;rounded=0;exitX=1;exitY=0.5;exitDx=0;exitDy=0;" edge="1" parent="1" source="tNlqTVV6g3EdLNQKf1Rk-1">
          <mxGeometry width="50" height="50" relative="1" as="geometry">
            <mxPoint x="420" y="380" as="sourcePoint" />
            <mxPoint x="320" y="120" as="targetPoint" />
          </mxGeometry>
        </mxCell>
        <mxCell id="tNlqTVV6g3EdLNQKf1Rk-14" value="" style="rhombus;whiteSpace=wrap;html=1;" vertex="1" parent="1">
          <mxGeometry x="320" y="80" width="80" height="80" as="geometry" />
        </mxCell>
        <mxCell id="tNlqTVV6g3EdLNQKf1Rk-15" value="" style="endArrow=none;html=1;rounded=0;exitX=1;exitY=0.5;exitDx=0;exitDy=0;" edge="1" parent="1" source="tNlqTVV6g3EdLNQKf1Rk-14">
          <mxGeometry width="50" height="50" relative="1" as="geometry">
            <mxPoint x="470" y="150" as="sourcePoint" />
            <mxPoint x="460" y="120" as="targetPoint" />
          </mxGeometry>
        </mxCell>
        <mxCell id="tNlqTVV6g3EdLNQKf1Rk-16" value="Инвентарь" style="rounded=0;whiteSpace=wrap;html=1;" vertex="1" parent="1">
          <mxGeometry x="460" y="80" width="140" height="80" as="geometry" />
        </mxCell>
        <mxCell id="tNlqTVV6g3EdLNQKf1Rk-17" value="" style="endArrow=none;html=1;rounded=0;exitX=0;exitY=1;exitDx=0;exitDy=0;entryX=1;entryY=0;entryDx=0;entryDy=0;" edge="1" parent="1" source="tNlqTVV6g3EdLNQKf1Rk-14" target="tNlqTVV6g3EdLNQKf1Rk-14">
          <mxGeometry width="50" height="50" relative="1" as="geometry">
            <mxPoint x="420" y="380" as="sourcePoint" />
            <mxPoint x="470" y="330" as="targetPoint" />
          </mxGeometry>
        </mxCell>
        <mxCell id="tNlqTVV6g3EdLNQKf1Rk-18" value="" style="endArrow=none;html=1;rounded=0;exitX=0;exitY=0;exitDx=0;exitDy=0;entryX=1;entryY=1;entryDx=0;entryDy=0;" edge="1" parent="1" source="tNlqTVV6g3EdLNQKf1Rk-14" target="tNlqTVV6g3EdLNQKf1Rk-14">
          <mxGeometry width="50" height="50" relative="1" as="geometry">
            <mxPoint x="410" y="350" as="sourcePoint" />
            <mxPoint x="470" y="330" as="targetPoint" />
          </mxGeometry>
        </mxCell>
        <mxCell id="tNlqTVV6g3EdLNQKf1Rk-19" value="" style="endArrow=classic;html=1;rounded=0;" edge="1" parent="1">
          <mxGeometry width="50" height="50" relative="1" as="geometry">
            <mxPoint x="375" y="140" as="sourcePoint" />
            <mxPoint x="345" y="140" as="targetPoint" />
          </mxGeometry>
        </mxCell>
        <mxCell id="tNlqTVV6g3EdLNQKf1Rk-20" value="" style="endArrow=classic;html=1;rounded=0;" edge="1" parent="1">
          <mxGeometry width="50" height="50" relative="1" as="geometry">
            <mxPoint x="346" y="100" as="sourcePoint" />
            <mxPoint x="374" y="101" as="targetPoint" />
          </mxGeometry>
        </mxCell>
        <mxCell id="tNlqTVV6g3EdLNQKf1Rk-22" value="" style="endArrow=none;html=1;rounded=0;entryX=0;entryY=1;entryDx=0;entryDy=0;" edge="1" parent="1" target="tNlqTVV6g3EdLNQKf1Rk-16">
          <mxGeometry width="50" height="50" relative="1" as="geometry">
            <mxPoint x="460" y="320" as="sourcePoint" />
            <mxPoint x="470" y="330" as="targetPoint" />
          </mxGeometry>
        </mxCell>
        <mxCell id="tNlqTVV6g3EdLNQKf1Rk-23" value="" style="endArrow=none;html=1;rounded=0;" edge="1" parent="1">
          <mxGeometry width="50" height="50" relative="1" as="geometry">
            <mxPoint x="560" y="320" as="sourcePoint" />
            <mxPoint x="460" y="320" as="targetPoint" />
          </mxGeometry>
        </mxCell>
        <mxCell id="tNlqTVV6g3EdLNQKf1Rk-25" value="" style="endArrow=none;html=1;rounded=0;" edge="1" parent="1">
          <mxGeometry width="50" height="50" relative="1" as="geometry">
            <mxPoint x="560" y="280" as="sourcePoint" />
            <mxPoint x="460" y="280" as="targetPoint" />
          </mxGeometry>
        </mxCell>
        <mxCell id="tNlqTVV6g3EdLNQKf1Rk-26" value="" style="endArrow=none;html=1;rounded=0;" edge="1" parent="1">
          <mxGeometry width="50" height="50" relative="1" as="geometry">
            <mxPoint x="560" y="240" as="sourcePoint" />
            <mxPoint x="460" y="240" as="targetPoint" />
          </mxGeometry>
        </mxCell>
        <mxCell id="tNlqTVV6g3EdLNQKf1Rk-28" value="Вместимость" style="text;html=1;align=center;verticalAlign=middle;whiteSpace=wrap;rounded=0;" vertex="1" parent="1">
          <mxGeometry x="490" y="210" width="60" height="30" as="geometry" />
        </mxCell>
        <mxCell id="tNlqTVV6g3EdLNQKf1Rk-29" value="Розмер" style="text;html=1;align=center;verticalAlign=middle;whiteSpace=wrap;rounded=0;" vertex="1" parent="1">
          <mxGeometry x="480" y="250" width="60" height="30" as="geometry" />
        </mxCell>
        <mxCell id="tNlqTVV6g3EdLNQKf1Rk-31" value="Маса" style="text;html=1;align=center;verticalAlign=middle;whiteSpace=wrap;rounded=0;" vertex="1" parent="1">
          <mxGeometry x="480" y="290" width="60" height="30" as="geometry" />
        </mxCell>
        <mxCell id="tNlqTVV6g3EdLNQKf1Rk-32" value="" style="endArrow=none;html=1;rounded=0;exitX=1;exitY=0.5;exitDx=0;exitDy=0;" edge="1" parent="1" source="tNlqTVV6g3EdLNQKf1Rk-16">
          <mxGeometry width="50" height="50" relative="1" as="geometry">
            <mxPoint x="680" y="160" as="sourcePoint" />
            <mxPoint x="660" y="120" as="targetPoint" />
          </mxGeometry>
        </mxCell>
        <mxCell id="tNlqTVV6g3EdLNQKf1Rk-33" value="Оружие" style="rounded=0;whiteSpace=wrap;html=1;" vertex="1" parent="1">
          <mxGeometry x="800" y="80" width="150" height="80" as="geometry" />
        </mxCell>
        <mxCell id="tNlqTVV6g3EdLNQKf1Rk-34" value="" style="rhombus;whiteSpace=wrap;html=1;" vertex="1" parent="1">
          <mxGeometry x="660" y="80" width="80" height="80" as="geometry" />
        </mxCell>
        <mxCell id="tNlqTVV6g3EdLNQKf1Rk-35" value="" style="endArrow=none;html=1;rounded=0;entryX=1;entryY=0.5;entryDx=0;entryDy=0;" edge="1" parent="1" target="tNlqTVV6g3EdLNQKf1Rk-34">
          <mxGeometry width="50" height="50" relative="1" as="geometry">
            <mxPoint x="800" y="120" as="sourcePoint" />
            <mxPoint x="780" y="330" as="targetPoint" />
          </mxGeometry>
        </mxCell>
        <mxCell id="tNlqTVV6g3EdLNQKf1Rk-37" value="" style="endArrow=none;html=1;rounded=0;entryX=0;entryY=1;entryDx=0;entryDy=0;" edge="1" parent="1" target="tNlqTVV6g3EdLNQKf1Rk-33">
          <mxGeometry width="50" height="50" relative="1" as="geometry">
            <mxPoint x="800" y="360" as="sourcePoint" />
            <mxPoint x="780" y="330" as="targetPoint" />
          </mxGeometry>
        </mxCell>
        <mxCell id="tNlqTVV6g3EdLNQKf1Rk-38" value="" style="endArrow=none;html=1;rounded=0;" edge="1" parent="1">
          <mxGeometry width="50" height="50" relative="1" as="geometry">
            <mxPoint x="800" y="280" as="sourcePoint" />
            <mxPoint x="880" y="280" as="targetPoint" />
          </mxGeometry>
        </mxCell>
        <mxCell id="tNlqTVV6g3EdLNQKf1Rk-39" value="" style="endArrow=none;html=1;rounded=0;" edge="1" parent="1">
          <mxGeometry width="50" height="50" relative="1" as="geometry">
            <mxPoint x="800" y="240" as="sourcePoint" />
            <mxPoint x="880" y="240" as="targetPoint" />
          </mxGeometry>
        </mxCell>
        <mxCell id="tNlqTVV6g3EdLNQKf1Rk-40" value="" style="endArrow=none;html=1;rounded=0;" edge="1" parent="1">
          <mxGeometry width="50" height="50" relative="1" as="geometry">
            <mxPoint x="800" y="320" as="sourcePoint" />
            <mxPoint x="880" y="320" as="targetPoint" />
          </mxGeometry>
        </mxCell>
        <mxCell id="tNlqTVV6g3EdLNQKf1Rk-41" value="Редкость" style="text;html=1;align=center;verticalAlign=middle;whiteSpace=wrap;rounded=0;" vertex="1" parent="1">
          <mxGeometry x="810" y="210" width="60" height="30" as="geometry" />
        </mxCell>
        <mxCell id="tNlqTVV6g3EdLNQKf1Rk-42" value="Маса" style="text;html=1;align=center;verticalAlign=middle;whiteSpace=wrap;rounded=0;" vertex="1" parent="1">
          <mxGeometry x="810" y="290" width="60" height="30" as="geometry" />
        </mxCell>
        <mxCell id="tNlqTVV6g3EdLNQKf1Rk-43" value="Имя" style="text;html=1;align=center;verticalAlign=middle;whiteSpace=wrap;rounded=0;" vertex="1" parent="1">
          <mxGeometry x="810" y="250" width="60" height="30" as="geometry" />
        </mxCell>
        <mxCell id="tNlqTVV6g3EdLNQKf1Rk-44" value="" style="endArrow=classic;html=1;rounded=0;" edge="1" parent="1">
          <mxGeometry width="50" height="50" relative="1" as="geometry">
            <mxPoint x="720" y="119.5" as="sourcePoint" />
            <mxPoint x="680" y="119.5" as="targetPoint" />
          </mxGeometry>
        </mxCell>
        <mxCell id="tNlqTVV6g3EdLNQKf1Rk-45" value="" style="endArrow=none;html=1;rounded=0;exitX=1;exitY=0.5;exitDx=0;exitDy=0;" edge="1" parent="1" source="tNlqTVV6g3EdLNQKf1Rk-33">
          <mxGeometry width="50" height="50" relative="1" as="geometry">
            <mxPoint x="1040" y="150" as="sourcePoint" />
            <mxPoint x="1020" y="120" as="targetPoint" />
          </mxGeometry>
        </mxCell>
        <mxCell id="tNlqTVV6g3EdLNQKf1Rk-47" value="Броня" style="rounded=0;whiteSpace=wrap;html=1;" vertex="1" parent="1">
          <mxGeometry x="1020" y="70" width="150" height="80" as="geometry" />
        </mxCell>
        <mxCell id="tNlqTVV6g3EdLNQKf1Rk-48" value="" style="endArrow=none;html=1;rounded=0;entryX=0;entryY=1;entryDx=0;entryDy=0;" edge="1" parent="1" target="tNlqTVV6g3EdLNQKf1Rk-47">
          <mxGeometry width="50" height="50" relative="1" as="geometry">
            <mxPoint x="1020" y="320" as="sourcePoint" />
            <mxPoint x="1320" y="280" as="targetPoint" />
          </mxGeometry>
        </mxCell>
        <mxCell id="tNlqTVV6g3EdLNQKf1Rk-49" value="" style="endArrow=none;html=1;rounded=0;" edge="1" parent="1">
          <mxGeometry width="50" height="50" relative="1" as="geometry">
            <mxPoint x="1020" y="280" as="sourcePoint" />
            <mxPoint x="1120" y="280" as="targetPoint" />
          </mxGeometry>
        </mxCell>
        <mxCell id="tNlqTVV6g3EdLNQKf1Rk-50" value="" style="endArrow=none;html=1;rounded=0;" edge="1" parent="1">
          <mxGeometry width="50" height="50" relative="1" as="geometry">
            <mxPoint x="1020" y="239" as="sourcePoint" />
            <mxPoint x="1120" y="239" as="targetPoint" />
          </mxGeometry>
        </mxCell>
        <mxCell id="tNlqTVV6g3EdLNQKf1Rk-52" value="Редкость" style="text;html=1;align=center;verticalAlign=middle;whiteSpace=wrap;rounded=0;" vertex="1" parent="1">
          <mxGeometry x="1040" y="210" width="60" height="30" as="geometry" />
        </mxCell>
        <mxCell id="tNlqTVV6g3EdLNQKf1Rk-54" value="Маса" style="text;html=1;align=center;verticalAlign=middle;whiteSpace=wrap;rounded=0;" vertex="1" parent="1">
          <mxGeometry x="1040" y="250" width="60" height="30" as="geometry" />
        </mxCell>
        <mxCell id="tNlqTVV6g3EdLNQKf1Rk-57" value="Цена" style="text;html=1;align=center;verticalAlign=middle;whiteSpace=wrap;rounded=0;" vertex="1" parent="1">
          <mxGeometry x="810" y="330" width="60" height="30" as="geometry" />
        </mxCell>
        <mxCell id="tNlqTVV6g3EdLNQKf1Rk-58" value="" style="endArrow=none;html=1;rounded=0;" edge="1" parent="1">
          <mxGeometry width="50" height="50" relative="1" as="geometry">
            <mxPoint x="800" y="360" as="sourcePoint" />
            <mxPoint x="880" y="360" as="targetPoint" />
          </mxGeometry>
        </mxCell>
        <mxCell id="tNlqTVV6g3EdLNQKf1Rk-59" value="" style="endArrow=none;html=1;rounded=0;" edge="1" parent="1">
          <mxGeometry width="50" height="50" relative="1" as="geometry">
            <mxPoint x="1020" y="320" as="sourcePoint" />
            <mxPoint x="1120" y="320" as="targetPoint" />
          </mxGeometry>
        </mxCell>
        <mxCell id="tNlqTVV6g3EdLNQKf1Rk-60" value="Цена" style="text;html=1;align=center;verticalAlign=middle;whiteSpace=wrap;rounded=0;" vertex="1" parent="1">
          <mxGeometry x="1040" y="290" width="60" height="30" as="geometry" />
        </mxCell>
        <mxCell id="tNlqTVV6g3EdLNQKf1Rk-62" value="" style="endArrow=none;html=1;rounded=0;entryX=1;entryY=1;entryDx=0;entryDy=0;" edge="1" parent="1" target="tNlqTVV6g3EdLNQKf1Rk-1">
          <mxGeometry width="50" height="50" relative="1" as="geometry">
            <mxPoint x="260" y="520" as="sourcePoint" />
            <mxPoint x="830" y="300" as="targetPoint" />
          </mxGeometry>
        </mxCell>
        <mxCell id="tNlqTVV6g3EdLNQKf1Rk-63" value="" style="endArrow=none;html=1;rounded=0;" edge="1" parent="1">
          <mxGeometry width="50" height="50" relative="1" as="geometry">
            <mxPoint x="260" y="520" as="sourcePoint" />
            <mxPoint x="950" y="520" as="targetPoint" />
          </mxGeometry>
        </mxCell>
        <mxCell id="tNlqTVV6g3EdLNQKf1Rk-64" value="" style="endArrow=none;html=1;rounded=0;entryX=0.92;entryY=1;entryDx=0;entryDy=0;entryPerimeter=0;" edge="1" parent="1" target="tNlqTVV6g3EdLNQKf1Rk-33">
          <mxGeometry width="50" height="50" relative="1" as="geometry">
            <mxPoint x="950" y="520" as="sourcePoint" />
            <mxPoint x="830" y="300" as="targetPoint" />
          </mxGeometry>
        </mxCell>
        <mxCell id="tNlqTVV6g3EdLNQKf1Rk-65" value="" style="rhombus;whiteSpace=wrap;html=1;" vertex="1" parent="1">
          <mxGeometry x="540" y="480" width="80" height="80" as="geometry" />
        </mxCell>
        <mxCell id="tNlqTVV6g3EdLNQKf1Rk-66" value="" style="endArrow=classic;html=1;rounded=0;" edge="1" parent="1">
          <mxGeometry width="50" height="50" relative="1" as="geometry">
            <mxPoint x="560" y="519.5" as="sourcePoint" />
            <mxPoint x="610" y="519.5" as="targetPoint" />
          </mxGeometry>
        </mxCell>
        <mxCell id="tNlqTVV6g3EdLNQKf1Rk-67" value="" style="endArrow=none;html=1;rounded=0;entryX=1;entryY=1;entryDx=0;entryDy=0;" edge="1" parent="1">
          <mxGeometry width="50" height="50" relative="1" as="geometry">
            <mxPoint x="230" y="640" as="sourcePoint" />
            <mxPoint x="230" y="160" as="targetPoint" />
          </mxGeometry>
        </mxCell>
        <mxCell id="tNlqTVV6g3EdLNQKf1Rk-68" value="" style="endArrow=none;html=1;rounded=0;" edge="1" parent="1">
          <mxGeometry width="50" height="50" relative="1" as="geometry">
            <mxPoint x="230" y="640" as="sourcePoint" />
            <mxPoint x="1200" y="640" as="targetPoint" />
          </mxGeometry>
        </mxCell>
        <mxCell id="tNlqTVV6g3EdLNQKf1Rk-69" value="" style="endArrow=none;html=1;rounded=0;entryX=0.947;entryY=1;entryDx=0;entryDy=0;entryPerimeter=0;" edge="1" parent="1" target="tNlqTVV6g3EdLNQKf1Rk-47">
          <mxGeometry width="50" height="50" relative="1" as="geometry">
            <mxPoint x="1200" y="640" as="sourcePoint" />
            <mxPoint x="1300" y="470" as="targetPoint" />
          </mxGeometry>
        </mxCell>
        <mxCell id="tNlqTVV6g3EdLNQKf1Rk-70" value="" style="rhombus;whiteSpace=wrap;html=1;" vertex="1" parent="1">
          <mxGeometry x="670" y="600" width="80" height="80" as="geometry" />
        </mxCell>
        <mxCell id="tNlqTVV6g3EdLNQKf1Rk-71" value="" style="endArrow=classic;html=1;rounded=0;" edge="1" parent="1">
          <mxGeometry width="50" height="50" relative="1" as="geometry">
            <mxPoint x="695" y="660" as="sourcePoint" />
            <mxPoint x="725" y="660" as="targetPoint" />
          </mxGeometry>
        </mxCell>
        <mxCell id="tNlqTVV6g3EdLNQKf1Rk-72" value="" style="endArrow=none;html=1;rounded=0;exitX=0;exitY=1;exitDx=0;exitDy=0;" edge="1" parent="1" source="tNlqTVV6g3EdLNQKf1Rk-70">
          <mxGeometry width="50" height="50" relative="1" as="geometry">
            <mxPoint x="680" y="670" as="sourcePoint" />
            <mxPoint x="730" y="620" as="targetPoint" />
          </mxGeometry>
        </mxCell>
        <mxCell id="tNlqTVV6g3EdLNQKf1Rk-73" value="" style="endArrow=none;html=1;rounded=0;entryX=0;entryY=0;entryDx=0;entryDy=0;" edge="1" parent="1" target="tNlqTVV6g3EdLNQKf1Rk-70">
          <mxGeometry width="50" height="50" relative="1" as="geometry">
            <mxPoint x="730" y="660" as="sourcePoint" />
            <mxPoint x="827" y="690" as="targetPoint" />
          </mxGeometry>
        </mxCell>
        <mxCell id="tNlqTVV6g3EdLNQKf1Rk-77" value="" style="endArrow=classic;html=1;rounded=0;" edge="1" parent="1">
          <mxGeometry width="50" height="50" relative="1" as="geometry">
            <mxPoint x="725" y="620" as="sourcePoint" />
            <mxPoint x="695" y="620" as="targetPoint" />
          </mxGeometry>
        </mxCell>
        <mxCell id="tNlqTVV6g3EdLNQKf1Rk-79" style="edgeStyle=orthogonalEdgeStyle;rounded=0;orthogonalLoop=1;jettySize=auto;html=1;" edge="1" parent="1" source="tNlqTVV6g3EdLNQKf1Rk-78" target="tNlqTVV6g3EdLNQKf1Rk-80">
          <mxGeometry relative="1" as="geometry">
            <mxPoint x="1540" y="210" as="targetPoint" />
          </mxGeometry>
        </mxCell>
        <mxCell id="tNlqTVV6g3EdLNQKf1Rk-78" value="Статр программы" style="rounded=0;whiteSpace=wrap;html=1;" vertex="1" parent="1">
          <mxGeometry x="1480" y="80" width="120" height="60" as="geometry" />
        </mxCell>
        <mxCell id="tNlqTVV6g3EdLNQKf1Rk-81" style="edgeStyle=orthogonalEdgeStyle;rounded=0;orthogonalLoop=1;jettySize=auto;html=1;" edge="1" parent="1" source="tNlqTVV6g3EdLNQKf1Rk-80" target="tNlqTVV6g3EdLNQKf1Rk-82">
          <mxGeometry relative="1" as="geometry">
            <mxPoint x="1540" y="340" as="targetPoint" />
          </mxGeometry>
        </mxCell>
        <mxCell id="tNlqTVV6g3EdLNQKf1Rk-80" value="Вывод меню опций&amp;nbsp;" style="rounded=0;whiteSpace=wrap;html=1;" vertex="1" parent="1">
          <mxGeometry x="1480" y="210" width="120" height="60" as="geometry" />
        </mxCell>
        <mxCell id="tNlqTVV6g3EdLNQKf1Rk-83" style="edgeStyle=orthogonalEdgeStyle;rounded=0;orthogonalLoop=1;jettySize=auto;html=1;" edge="1" parent="1" source="tNlqTVV6g3EdLNQKf1Rk-82" target="tNlqTVV6g3EdLNQKf1Rk-84">
          <mxGeometry relative="1" as="geometry">
            <mxPoint x="1540" y="450" as="targetPoint" />
          </mxGeometry>
        </mxCell>
        <mxCell id="tNlqTVV6g3EdLNQKf1Rk-82" value="Выбор опции" style="rounded=0;whiteSpace=wrap;html=1;" vertex="1" parent="1">
          <mxGeometry x="1480" y="310" width="120" height="60" as="geometry" />
        </mxCell>
        <mxCell id="tNlqTVV6g3EdLNQKf1Rk-85" style="edgeStyle=orthogonalEdgeStyle;rounded=0;orthogonalLoop=1;jettySize=auto;html=1;" edge="1" parent="1" source="tNlqTVV6g3EdLNQKf1Rk-84" target="tNlqTVV6g3EdLNQKf1Rk-86">
          <mxGeometry relative="1" as="geometry">
            <mxPoint x="1540" y="540" as="targetPoint" />
          </mxGeometry>
        </mxCell>
        <mxCell id="tNlqTVV6g3EdLNQKf1Rk-84" value="Проверка какую опциию выбрали&amp;nbsp;" style="rounded=0;whiteSpace=wrap;html=1;" vertex="1" parent="1">
          <mxGeometry x="1480" y="420" width="120" height="60" as="geometry" />
        </mxCell>
        <mxCell id="tNlqTVV6g3EdLNQKf1Rk-87" style="edgeStyle=orthogonalEdgeStyle;rounded=0;orthogonalLoop=1;jettySize=auto;html=1;" edge="1" parent="1" source="tNlqTVV6g3EdLNQKf1Rk-86" target="tNlqTVV6g3EdLNQKf1Rk-88">
          <mxGeometry relative="1" as="geometry">
            <mxPoint x="1380" y="540" as="targetPoint" />
          </mxGeometry>
        </mxCell>
        <mxCell id="tNlqTVV6g3EdLNQKf1Rk-89" style="edgeStyle=orthogonalEdgeStyle;rounded=0;orthogonalLoop=1;jettySize=auto;html=1;" edge="1" parent="1" source="tNlqTVV6g3EdLNQKf1Rk-86" target="tNlqTVV6g3EdLNQKf1Rk-90">
          <mxGeometry relative="1" as="geometry">
            <mxPoint x="1680" y="540" as="targetPoint" />
          </mxGeometry>
        </mxCell>
        <mxCell id="tNlqTVV6g3EdLNQKf1Rk-86" value="Проверка если опция выход" style="rounded=0;whiteSpace=wrap;html=1;" vertex="1" parent="1">
          <mxGeometry x="1480" y="510" width="120" height="60" as="geometry" />
        </mxCell>
        <mxCell id="tNlqTVV6g3EdLNQKf1Rk-91" style="edgeStyle=orthogonalEdgeStyle;rounded=0;orthogonalLoop=1;jettySize=auto;html=1;" edge="1" parent="1" source="tNlqTVV6g3EdLNQKf1Rk-88" target="tNlqTVV6g3EdLNQKf1Rk-92">
          <mxGeometry relative="1" as="geometry">
            <mxPoint x="1380" y="770" as="targetPoint" />
          </mxGeometry>
        </mxCell>
        <mxCell id="tNlqTVV6g3EdLNQKf1Rk-88" value="Если да" style="rounded=0;whiteSpace=wrap;html=1;" vertex="1" parent="1">
          <mxGeometry x="1320" y="630" width="120" height="60" as="geometry" />
        </mxCell>
        <mxCell id="tNlqTVV6g3EdLNQKf1Rk-90" value="Если нет" style="rounded=0;whiteSpace=wrap;html=1;" vertex="1" parent="1">
          <mxGeometry x="1640" y="630" width="120" height="60" as="geometry" />
        </mxCell>
        <mxCell id="tNlqTVV6g3EdLNQKf1Rk-92" value="Конец" style="rounded=0;whiteSpace=wrap;html=1;" vertex="1" parent="1">
          <mxGeometry x="1320" y="740" width="120" height="60" as="geometry" />
        </mxCell>
        <mxCell id="tNlqTVV6g3EdLNQKf1Rk-93" style="edgeStyle=orthogonalEdgeStyle;rounded=0;orthogonalLoop=1;jettySize=auto;html=1;entryX=0.992;entryY=0.367;entryDx=0;entryDy=0;entryPerimeter=0;exitX=1;exitY=0.5;exitDx=0;exitDy=0;" edge="1" parent="1" source="tNlqTVV6g3EdLNQKf1Rk-90" target="tNlqTVV6g3EdLNQKf1Rk-80">
          <mxGeometry relative="1" as="geometry" />
        </mxCell>
        <mxCell id="tNlqTVV6g3EdLNQKf1Rk-97" style="edgeStyle=orthogonalEdgeStyle;rounded=0;orthogonalLoop=1;jettySize=auto;html=1;" edge="1" parent="1" source="tNlqTVV6g3EdLNQKf1Rk-94" target="tNlqTVV6g3EdLNQKf1Rk-98">
          <mxGeometry relative="1" as="geometry">
            <mxPoint x="2290" y="110" as="targetPoint" />
          </mxGeometry>
        </mxCell>
        <mxCell id="tNlqTVV6g3EdLNQKf1Rk-101" style="edgeStyle=orthogonalEdgeStyle;rounded=0;orthogonalLoop=1;jettySize=auto;html=1;" edge="1" parent="1" source="tNlqTVV6g3EdLNQKf1Rk-94" target="tNlqTVV6g3EdLNQKf1Rk-102">
          <mxGeometry relative="1" as="geometry">
            <mxPoint x="2150" y="290" as="targetPoint" />
          </mxGeometry>
        </mxCell>
        <mxCell id="tNlqTVV6g3EdLNQKf1Rk-94" value="Class Character" style="rounded=0;whiteSpace=wrap;html=1;" vertex="1" parent="1">
          <mxGeometry x="2090" y="110" width="120" height="60" as="geometry" />
        </mxCell>
        <mxCell id="tNlqTVV6g3EdLNQKf1Rk-98" value="Он хранит:&lt;br&gt;Имя&amp;nbsp;&lt;br&gt;Айди&lt;br&gt;Характеристики вашего персонажа&lt;div&gt;И сколько у вас есть денег&lt;/div&gt;" style="rounded=0;whiteSpace=wrap;html=1;" vertex="1" parent="1">
          <mxGeometry x="2290" y="80" width="150" height="120" as="geometry" />
        </mxCell>
        <mxCell id="tNlqTVV6g3EdLNQKf1Rk-103" style="edgeStyle=orthogonalEdgeStyle;rounded=0;orthogonalLoop=1;jettySize=auto;html=1;" edge="1" parent="1" source="tNlqTVV6g3EdLNQKf1Rk-102" target="tNlqTVV6g3EdLNQKf1Rk-104">
          <mxGeometry relative="1" as="geometry">
            <mxPoint x="2310" y="290" as="targetPoint" />
          </mxGeometry>
        </mxCell>
        <mxCell id="tNlqTVV6g3EdLNQKf1Rk-102" value="Вся эта информация в class Invertar" style="rounded=0;whiteSpace=wrap;html=1;" vertex="1" parent="1">
          <mxGeometry x="2090" y="240" width="120" height="60" as="geometry" />
        </mxCell>
        <mxCell id="tNlqTVV6g3EdLNQKf1Rk-104" value="Он хранит:&lt;br&gt;Вместимость&amp;nbsp;&lt;div&gt;Сколько есть места&amp;nbsp;&lt;/div&gt;&lt;div&gt;и предметы&lt;/div&gt;" style="rounded=0;whiteSpace=wrap;html=1;" vertex="1" parent="1">
          <mxGeometry x="2290" y="230" width="160" height="80" as="geometry" />
        </mxCell>
        <mxCell id="tNlqTVV6g3EdLNQKf1Rk-107" value="" style="endArrow=none;html=1;rounded=0;entryX=0.5;entryY=1;entryDx=0;entryDy=0;exitX=0.5;exitY=0;exitDx=0;exitDy=0;" edge="1" parent="1" source="tNlqTVV6g3EdLNQKf1Rk-108" target="tNlqTVV6g3EdLNQKf1Rk-102">
          <mxGeometry width="50" height="50" relative="1" as="geometry">
            <mxPoint x="2150" y="370" as="sourcePoint" />
            <mxPoint x="2170" y="390" as="targetPoint" />
          </mxGeometry>
        </mxCell>
        <mxCell id="tNlqTVV6g3EdLNQKf1Rk-109" style="edgeStyle=orthogonalEdgeStyle;rounded=0;orthogonalLoop=1;jettySize=auto;html=1;" edge="1" parent="1" source="tNlqTVV6g3EdLNQKf1Rk-108" target="tNlqTVV6g3EdLNQKf1Rk-110">
          <mxGeometry relative="1" as="geometry">
            <mxPoint x="2320" y="399.9999999999999" as="targetPoint" />
          </mxGeometry>
        </mxCell>
        <mxCell id="tNlqTVV6g3EdLNQKf1Rk-112" style="edgeStyle=orthogonalEdgeStyle;rounded=0;orthogonalLoop=1;jettySize=auto;html=1;entryX=0;entryY=0.25;entryDx=0;entryDy=0;" edge="1" parent="1" source="tNlqTVV6g3EdLNQKf1Rk-108" target="tNlqTVV6g3EdLNQKf1Rk-102">
          <mxGeometry relative="1" as="geometry">
            <Array as="points">
              <mxPoint x="2000" y="409.9999999999999" />
              <mxPoint x="2000" y="255" />
            </Array>
          </mxGeometry>
        </mxCell>
        <mxCell id="tNlqTVV6g3EdLNQKf1Rk-118" style="edgeStyle=orthogonalEdgeStyle;rounded=0;orthogonalLoop=1;jettySize=auto;html=1;" edge="1" parent="1" source="tNlqTVV6g3EdLNQKf1Rk-108" target="tNlqTVV6g3EdLNQKf1Rk-119">
          <mxGeometry relative="1" as="geometry">
            <mxPoint x="2150" y="530" as="targetPoint" />
          </mxGeometry>
        </mxCell>
        <mxCell id="tNlqTVV6g3EdLNQKf1Rk-108" value="Дальше идет class Predmet" style="rounded=0;whiteSpace=wrap;html=1;" vertex="1" parent="1">
          <mxGeometry x="2090" y="380" width="120" height="60" as="geometry" />
        </mxCell>
        <mxCell id="tNlqTVV6g3EdLNQKf1Rk-110" value="Он хранит:&lt;div&gt;Имя&amp;nbsp;&lt;br&gt;Масу&lt;br&gt;Цену&lt;/div&gt;" style="rounded=0;whiteSpace=wrap;html=1;" vertex="1" parent="1">
          <mxGeometry x="2310" y="370" width="140" height="80" as="geometry" />
        </mxCell>
        <mxCell id="tNlqTVV6g3EdLNQKf1Rk-113" value="Он передает Информацию в Инвентарь" style="rhombus;whiteSpace=wrap;html=1;" vertex="1" parent="1">
          <mxGeometry x="1940" y="280" width="120" height="110" as="geometry" />
        </mxCell>
        <mxCell id="tNlqTVV6g3EdLNQKf1Rk-115" style="edgeStyle=orthogonalEdgeStyle;rounded=0;orthogonalLoop=1;jettySize=auto;html=1;" edge="1" parent="1" source="tNlqTVV6g3EdLNQKf1Rk-114" target="tNlqTVV6g3EdLNQKf1Rk-116">
          <mxGeometry relative="1" as="geometry">
            <mxPoint x="2320" as="targetPoint" />
          </mxGeometry>
        </mxCell>
        <mxCell id="tNlqTVV6g3EdLNQKf1Rk-117" style="edgeStyle=orthogonalEdgeStyle;rounded=0;orthogonalLoop=1;jettySize=auto;html=1;entryX=0.5;entryY=0;entryDx=0;entryDy=0;" edge="1" parent="1" source="tNlqTVV6g3EdLNQKf1Rk-114" target="tNlqTVV6g3EdLNQKf1Rk-94">
          <mxGeometry relative="1" as="geometry" />
        </mxCell>
        <mxCell id="tNlqTVV6g3EdLNQKf1Rk-114" value="Class gra" style="rounded=0;whiteSpace=wrap;html=1;" vertex="1" parent="1">
          <mxGeometry x="2090" y="-10" width="120" height="60" as="geometry" />
        </mxCell>
        <mxCell id="tNlqTVV6g3EdLNQKf1Rk-116" value="Он хранит список персонажей и тд" style="rounded=0;whiteSpace=wrap;html=1;" vertex="1" parent="1">
          <mxGeometry x="2270" y="-10" width="120" height="60" as="geometry" />
        </mxCell>
        <mxCell id="tNlqTVV6g3EdLNQKf1Rk-119" value="А дальше идут функции которые отвечают за добавление удаление и тд" style="rounded=0;whiteSpace=wrap;html=1;" vertex="1" parent="1">
          <mxGeometry x="2070" y="495" width="160" height="90" as="geometry" />
        </mxCell>
      </root>
    </mxGraphModel>
  </diagram>
</mxfile>
